<svg width="14" height="22" viewBox="0 0 14 22" fill="none" xmlns="http://www.w3.org/2000/svg">
<path d="M1.96861 4.21282C2.36097 3.31963 3.22339 2.58569 3.95579 1.02087M1.99323 4.21128C2.36789 3.57659 2.95105 2.81418 3.95041 1.0778M2.87642 5.0837C3.6396 4.19359 4.22813 3.15038 4.74897 2.27565M3.0626 4.98369C3.37418 4.38361 3.72191 3.72584 4.64357 2.29642M4.16659 5.58607C4.3443 5.10755 4.78205 4.35515 5.57908 2.91112M4.1412 5.62762C4.42893 5.01369 4.91437 4.3136 5.73294 3.01036M4.64819 6.97087C5.18903 6.08691 6.02221 5.27527 6.74692 3.80046M4.80205 6.88547C5.29212 6.12153 5.93758 5.2091 6.76307 3.60197M5.74602 7.6925C6.28917 6.49158 7.09312 5.42298 7.44085 5.12986M5.81372 7.64788C6.39687 6.58543 6.98079 5.71686 7.33238 5.02831M6.46688 8.98497C7.1762 7.81175 7.85475 6.79238 8.31558 5.45683M6.37533 8.93112C7.17851 7.53402 8.08786 6.39464 8.53253 5.73225M7.57933 9.58966C8.14325 8.68186 8.5133 7.93715 9.04183 6.99779M7.56856 9.55966C7.8686 9.00036 8.33789 8.28719 9.15492 6.90932M2.83642 19.6363C3.45342 18.0715 4.35969 17.056 5.55138 14.8503M2.77179 19.3171C3.67345 18.1192 4.3543 16.9037 5.63293 14.8119M8.47329 10.2182C8.78179 9.50888 9.30648 9.18577 10.0881 7.56633M8.57946 10.179C8.92258 9.60967 9.23185 9.06498 10.1712 7.59095M3.43572 20.5072C6.36533 16.4952 8.57023 12.5131 10.9213 7.65711M3.40033 20.5334C5.45444 18.0561 6.5969 15.0919 11.1236 8.06332M7.23698 17.1522C8.30019 15.135 9.60959 13.5056 12.1253 9.29501M7.43162 16.7298C8.23634 15.205 9.42957 13.7725 12.0007 9.43888M11.3113 12.8593C11.796 12.0254 12.4823 10.8306 12.93 10.2274M11.326 12.7993C11.6968 12.1308 12.2699 11.5461 12.9939 10.229" stroke="black" stroke-width="1.643" stroke-linecap="round"/>
<path d="M8.73099 10.4658C6.50378 7.81241 3.92653 5.6029 1 3.44801M1.3085 3.1295C1.86704 2.49558 2.44788 1.7501 3.49801 1M4.01808 1.13309C6.08373 2.76561 8.54635 6.43377 12.5246 11.1428M13 10.0689C10.7736 13.2216 7.40467 15.6457 3.35184 20.8379M3.51878 20.184C2.83331 19.5147 2.15938 18.9854 1.30081 17.7845M1.0854 18.3699C2.83793 16.1735 4.81818 13.7878 8.58097 10.0389" stroke="black" stroke-linecap="round"/>
</svg>
