<svg width="22" height="23" viewBox="0 0 22 23" fill="none" xmlns="http://www.w3.org/2000/svg">
<path d="M10.8741 1.03285C12.4663 0.844918 14.5742 1.48752 16.0276 2.34329C17.481 3.19905 18.7661 4.68364 19.5944 6.16746C20.4227 7.65127 20.9716 9.55994 20.9975 11.2462C21.0235 12.9324 20.5631 14.8049 19.7501 16.2849C18.9371 17.7648 17.5319 19.2396 16.1195 20.1259C14.707 21.0121 12.9394 21.5731 11.2752 21.6024C9.61103 21.6318 7.59185 21.1233 6.13443 20.3022C4.67701 19.4812 3.3779 18.1319 2.53068 16.6761C1.68346 15.2203 1.08014 13.2834 1.05111 11.5675C1.02208 9.85153 1.5295 7.8733 2.35652 6.3805C3.18353 4.88769 4.55304 3.48526 6.01318 2.61063C7.47332 1.736 10.1971 1.34323 11.1174 1.13274C12.0376 0.922248 11.5309 1.17609 11.5348 1.34769M10.0751 1.23715C11.6569 0.941319 13.6211 1.29628 15.1592 1.97846C16.6974 2.66064 18.3359 3.93578 19.3038 5.33024C20.2717 6.72469 20.8303 8.63179 20.9668 10.3452C21.1033 12.0586 20.8185 14.063 20.1228 15.6107C19.4271 17.1585 18.1532 18.6254 16.7927 19.6315C15.4323 20.6376 13.5914 21.4523 11.9602 21.6474C10.3289 21.8425 8.53933 21.5364 7.00526 20.8024C5.4712 20.0684 3.74949 18.6325 2.75575 17.2434C1.76201 15.8543 1.19481 14.1643 1.04281 12.468C0.890805 10.7717 1.14068 8.64606 1.84373 7.06549C2.54677 5.48492 3.88831 3.95697 5.26108 2.98453C6.63384 2.01209 9.25424 1.49074 10.0803 1.23084C10.9064 0.970937 10.1819 1.26188 10.2176 1.42511" stroke="black" stroke-width="2"/>
</svg>
