<svg width="22" height="32" viewBox="0 0 22 32" fill="none" xmlns="http://www.w3.org/2000/svg">
<path d="M15.8439 29.8012C14.333 30.859 14.2345 28.8933 14.047 29.898M15.8439 29.8012C13.4814 31.7184 13.7298 29.7121 14.047 29.898M15.8439 29.8012C15.7736 28.3417 18.0721 30.1308 17.0752 28.473M15.8439 29.8012C16.744 31.2402 18.033 28.0371 17.0752 28.473M14.047 29.898C14.4752 30.0558 12.2095 29.2402 12.7189 28.6683M14.047 29.898C13.1673 29.2386 14.2408 27.6714 12.7189 28.6683M12.7189 28.6683C11.9204 26.1995 10.2391 22.9338 8.03128 18.59M12.7189 28.6683C10.8845 24.9932 8.98598 21.0775 8.03128 18.59M8.03128 18.59C7.07969 19.8369 6.48593 21.1603 4.39839 23.6682M8.03128 18.59C6.62656 20.5385 5.2109 22.5104 4.39839 23.6682M4.39839 23.6682C2.54679 25.4901 2.60304 25.2323 2.64054 24.2542M4.39839 23.6682C2.78585 25.4886 2.96555 25.4229 2.64054 24.2542M2.64054 24.2542C2.41241 24.5214 0.531119 22.0432 1.54677 22.7698M2.64054 24.2542C1.73271 24.3667 0.163924 24.2385 1.54677 22.7698M1.54677 22.7698C1.40301 18.0478 1.18738 13.2149 1.54677 2.73027M1.54677 22.7698C1.24832 18.1306 1.90302 13.4742 1.54677 2.73027M1.54677 2.73027C1.57489 3.34747 1.97177 2.23182 2.42647 1.32399M1.54677 2.73027C2.67804 2.53496 2.46241 2.26776 2.42647 1.32399M2.42647 1.32399C3.25774 0.897421 3.47181 2.07245 4.08588 1.51931M2.42647 1.32399C2.29209 1.95213 3.37493 0.169281 4.08588 1.51931M4.08588 1.51931C8.68754 5.45845 13.1673 9.86011 19.8675 13.9414M4.08588 1.51931C9.08911 6.33035 14.5783 9.95074 19.8675 13.9414M19.8675 13.9414C22.0144 12.9352 20.2362 13.8743 20.3956 15.6602M19.8675 13.9414C21.8441 15.5946 20.6956 13.6914 20.3956 15.6602M20.3956 15.6602C20.1878 17.4946 21.1722 17.7806 18.8909 16.7149M20.3956 15.6602C21.6191 15.8555 18.3518 17.1274 18.8909 16.7149M18.8909 16.7149C17.7424 16.7337 16.0299 16.4727 12.3282 16.7149M18.8909 16.7149C16.819 16.7181 14.8158 16.8118 12.3282 16.7149M12.3282 16.7149C13.0392 18.9994 14.122 21.4604 16.9768 26.6761M12.3282 16.7149C14.1189 19.9088 15.1611 23.462 16.9768 26.6761M16.9768 26.6761C18.083 26.3323 16.2299 28.0964 17.0752 28.473M16.9768 26.6761C18.6612 26.4995 18.294 27.0245 17.0752 28.473" stroke="black" stroke-width="2" stroke-linecap="round"/>
</svg>
