<svg width="22" height="23" viewBox="0 0 22 23" fill="none" xmlns="http://www.w3.org/2000/svg">
<path d="M1.10334 1.31992C6.95131 1.18392 12.8245 1.0135 20.8362 1.34766M1.21483 1.11543C6.42994 1.17661 11.7144 1.09222 20.9498 1.14442M20.9527 1.20364C21.0824 6.04419 20.7746 10.9184 20.8264 21.064M21 1.21801C20.8278 5.91098 20.9787 10.765 20.9606 20.8463M20.7123 21.0375C13.6813 21.0188 6.57551 21.0355 1.00003 20.8299M20.8806 20.9268C15.9927 20.809 11.1535 20.8946 1.05636 20.9829M1.30108 20.9224C1.12918 14.15 1.29593 6.94978 1.2735 1M1.10581 21.0035C1.06243 14.2809 1.12993 7.67618 1.10768 1.10775" stroke="black" stroke-width="2"/>
</svg>
