<svg width="22" height="28" viewBox="0 0 22 28" fill="none" xmlns="http://www.w3.org/2000/svg">
<path d="M7.98787 26.6248C9.27913 19.1355 8.61323 11.3439 8.15579 5.19224M8.73831 25.7041C8.13958 21.1621 8.42099 17.22 8.78926 6.0249M8.76726 5.91488C6.72441 6.21482 5.77826 5.96005 1.60107 5.86624M8.59355 6.01795C6.37119 5.72843 4.05736 5.76781 1.3463 5.97394M1.63002 6.05269C1.63002 5.02664 1.31387 4.31094 1.59644 1.79792M1.50032 5.97163C1.51653 4.21714 1.50032 2.70006 1.39262 1.70759M1.00003 1.38332C4.65492 1.46439 9.77594 2.11523 21 1M1.16911 2.18703C7.81648 1.76433 13.718 1.34511 20.5136 2.0608M20.1743 1.88246C20.2137 3.25941 20.1905 4.82281 20.1801 5.93341M20.3214 1.70527C20.1535 2.73596 20.2774 3.70527 20.3434 5.93225M20.3121 5.76317C17.6995 5.88593 15.908 6.18819 13.4725 5.96931M20.333 5.89172C17.6034 5.87087 14.9757 6.00174 13.1737 5.82455M13.5443 5.11928C13.0765 9.34395 13.2282 14.4777 13.3996 26.817M12.6897 6.09902C13.5026 14.2438 12.8773 21.8848 12.8275 26.1233M13.0128 25.989C11.7273 26.2473 10.2693 25.8836 8.73946 26.0469M13.271 26.1384C11.9763 25.9855 10.6248 25.9774 8.48816 26.0898" stroke="black" stroke-width="2" stroke-linecap="round"/>
</svg>
